<svg xmlns="http://www.w3.org/2000/svg" width="288" height="32" viewBox="0 0 288 32" shape-rendering="crispEdges">
  <defs>
    <style>
      .k{fill:#1c1a17}.k2{fill:#0f0e0c}.ke{fill:#4a463f}.w{fill:#ffffff}
      .t{fill:#0f6b5f}.t2{fill:#0a4f47}.t3{fill:#2a9183}
      .g{fill:#1f7a52}.g2{fill:#155c3d}.g3{fill:#389e6e}
      .r{fill:#b5392f}.r2{fill:#8c2a22}.r3{fill:#d15a4a}
      .y{fill:#a25e10}.y2{fill:#7d480b}.y3{fill:#c47e28}
      .v{fill:#3a6ea5}.m{fill:#6b6760}.b{fill:#3a6ea5}
    </style>
  </defs>

  <!-- runQueued -->
  <g transform="translate(0 0)">
    <rect class="k" x="8" y="4" width="16" height="2"/><rect class="k" x="8" y="26" width="16" height="2"/>
    <rect class="k" x="9" y="6" width="2" height="2"/><rect class="k" x="21" y="6" width="2" height="2"/>
    <rect class="k" x="11" y="8" width="2" height="2"/><rect class="k" x="19" y="8" width="2" height="2"/>
    <rect class="k" x="13" y="10" width="2" height="2"/><rect class="k" x="17" y="10" width="2" height="2"/>
    <rect class="k" x="15" y="12" width="2" height="2"/>
    <rect class="k" x="15" y="14" width="2" height="2"/>
    <rect class="k" x="13" y="16" width="2" height="2"/><rect class="k" x="17" y="16" width="2" height="2"/>
    <rect class="k" x="11" y="18" width="2" height="2"/><rect class="k" x="19" y="18" width="2" height="2"/>
    <rect class="k" x="9" y="20" width="2" height="2"/><rect class="k" x="21" y="20" width="2" height="2"/>
    <rect class="y" x="11" y="20" width="10" height="6"/><rect class="y3" x="11" y="20" width="10" height="2"/><rect class="y2" x="11" y="24" width="10" height="2"/>
    <rect class="m" x="13" y="14" width="6" height="2"/>
    <rect class="w" x="14" y="22" width="2" height="2"/>
  </g>

  <!-- runRunning -->
  <g transform="translate(32 0)">
    <rect class="k" x="11" y="6" width="10" height="2"/><rect class="k" x="11" y="24" width="10" height="2"/>
    <rect class="k" x="7" y="10" width="2" height="12"/><rect class="k" x="23" y="10" width="2" height="12"/>
    <rect class="k" x="9" y="8" width="2" height="2"/><rect class="k" x="21" y="8" width="2" height="2"/>
    <rect class="k" x="9" y="22" width="2" height="2"/><rect class="k" x="21" y="22" width="2" height="2"/>
    <rect class="t" x="13" y="11" width="2" height="10"/><rect class="t3" x="13" y="11" width="2" height="3"/>
    <rect class="t" x="15" y="13" width="2" height="6"/>
    <rect class="t" x="17" y="15" width="2" height="2"/>
    <rect class="t" x="26" y="12" width="4" height="3"/><rect class="t3" x="26" y="12" width="4" height="1"/>
    <rect class="t" x="26" y="18" width="4" height="3"/><rect class="t2" x="26" y="20" width="4" height="1"/>
    <rect class="w" x="13" y="11" width="2" height="2"/>
  </g>

  <!-- seenTrial -->
  <g transform="translate(64 0)">
    <rect class="k" x="9" y="14" width="2" height="2"/><rect class="k" x="21" y="14" width="2" height="2"/>
    <rect class="k" x="11" y="12" width="2" height="2"/><rect class="k" x="19" y="12" width="2" height="2"/>
    <rect class="k" x="13" y="10" width="6" height="2"/>
    <rect class="k" x="11" y="18" width="2" height="2"/><rect class="k" x="19" y="18" width="2" height="2"/>
    <rect class="k" x="13" y="20" width="6" height="2"/>
    <rect class="w" x="11" y="14" width="10" height="4"/>
    <rect class="t" x="13" y="13" width="6" height="6"/><rect class="t3" x="13" y="13" width="6" height="2"/><rect class="t2" x="13" y="17" width="6" height="2"/>
    <rect class="k" x="15" y="15" width="2" height="2"/>
    <rect class="w" x="13" y="13" width="2" height="2"/>
  </g>

  <!-- heldOutTrial -->
  <g transform="translate(96 0)">
    <rect class="k" x="9" y="14" width="2" height="2"/><rect class="k" x="21" y="14" width="2" height="2"/>
    <rect class="k" x="11" y="12" width="2" height="2"/><rect class="k" x="19" y="12" width="2" height="2"/>
    <rect class="k" x="13" y="10" width="6" height="2"/>
    <rect class="k" x="11" y="18" width="2" height="2"/><rect class="k" x="19" y="18" width="2" height="2"/>
    <rect class="k" x="13" y="20" width="6" height="2"/>
    <rect class="w" x="11" y="14" width="10" height="4"/>
    <rect class="m" x="11" y="14" width="2" height="2"/><rect class="m" x="15" y="14" width="2" height="2"/><rect class="m" x="19" y="14" width="2" height="2"/>
    <rect class="t" x="13" y="14" width="4" height="3"/>
    <rect class="k" x="9" y="6" width="14" height="8"/><rect class="v" x="9" y="6" width="14" height="8"/><rect class="k" x="9" y="6" width="14" height="2"/>
    <rect class="w" x="11" y="8" width="2" height="2"/>
  </g>

  <!-- passBead -->
  <g transform="translate(128 0)">
    <rect class="k" x="12" y="8" width="8" height="2"/><rect class="k" x="12" y="22" width="8" height="2"/>
    <rect class="k" x="10" y="10" width="2" height="12"/><rect class="k" x="20" y="10" width="2" height="12"/>
    <rect class="g" x="12" y="10" width="8" height="12"/><rect class="g3" x="12" y="10" width="8" height="2"/><rect class="g3" x="12" y="10" width="2" height="6"/><rect class="g2" x="18" y="12" width="2" height="10"/><rect class="g2" x="12" y="20" width="8" height="2"/>
    <rect class="w" x="13" y="11" width="2" height="2"/><rect class="w" x="13" y="15" width="2" height="2"/>
  </g>

  <!-- failBead -->
  <g transform="translate(160 0)">
    <rect class="k" x="12" y="8" width="8" height="2"/><rect class="k" x="12" y="22" width="8" height="2"/>
    <rect class="k" x="10" y="10" width="2" height="12"/><rect class="k" x="20" y="10" width="2" height="12"/>
    <rect class="r" x="12" y="10" width="8" height="12"/><rect class="r3" x="12" y="10" width="8" height="2"/><rect class="r3" x="12" y="10" width="2" height="6"/><rect class="r2" x="18" y="12" width="2" height="10"/><rect class="r2" x="12" y="20" width="8" height="2"/>
    <rect class="w" x="13" y="11" width="2" height="2"/>
    <rect class="k2" x="14" y="13" width="2" height="2"/><rect class="k2" x="16" y="13" width="2" height="2"/><rect class="k2" x="15" y="15" width="2" height="2"/><rect class="k2" x="14" y="17" width="2" height="2"/><rect class="k2" x="16" y="17" width="2" height="2"/>
  </g>

  <!-- runComplete -->
  <g transform="translate(192 0)">
    <rect class="m" x="8" y="26" width="16" height="3"/><rect class="ke" x="8" y="26" width="16" height="1"/>
    <rect class="k" x="11" y="4" width="2" height="24"/>
    <rect class="k" x="13" y="6" width="12" height="2"/><rect class="k" x="13" y="16" width="12" height="2"/>
    <rect class="k" x="23" y="8" width="2" height="8"/>
    <rect class="g" x="13" y="8" width="10" height="8"/><rect class="g3" x="13" y="8" width="10" height="2"/><rect class="g2" x="13" y="14" width="10" height="2"/>
    <rect class="w" x="14" y="9" width="3" height="3"/><rect class="w" x="18" y="12" width="3" height="3"/>
  </g>

  <!-- currentPhaseMarker -->
  <g transform="translate(224 0)">
    <rect class="k" x="6" y="24" width="20" height="2"/>
    <rect class="v" x="9" y="8" width="4" height="2"/><rect class="v" x="19" y="8" width="4" height="2"/>
    <rect class="v" x="11" y="10" width="4" height="2"/><rect class="v" x="17" y="10" width="4" height="2"/>
    <rect class="v" x="13" y="12" width="2" height="2"/><rect class="v" x="17" y="12" width="2" height="2"/>
    <rect class="v" x="14" y="14" width="4" height="2"/>
    <rect class="v" x="15" y="16" width="2" height="2"/>
    <rect class="y" x="15" y="18" width="2" height="2"/><rect class="y3" x="15" y="18" width="2" height="1"/>
  </g>

  <!-- timelineNode -->
  <g transform="translate(256 0)">
    <rect class="m" x="0" y="15" width="32" height="2"/>
    <rect class="k" x="12" y="8" width="8" height="2"/><rect class="k" x="12" y="22" width="8" height="2"/>
    <rect class="k" x="10" y="10" width="2" height="12"/><rect class="k" x="20" y="10" width="2" height="12"/>
    <rect class="w" x="12" y="10" width="8" height="12"/><rect class="m" x="12" y="20" width="8" height="2"/>
    <rect class="t" x="14" y="14" width="4" height="4"/><rect class="t3" x="14" y="14" width="4" height="2"/>
    <rect class="w" x="12" y="10" width="2" height="2"/>
  </g>
</svg>
