<svg xmlns="http://www.w3.org/2000/svg" width="288" height="32" viewBox="0 0 288 32" shape-rendering="crispEdges">
  <defs>
    <style>
      .k{fill:#1c1a17}.k2{fill:#0f0e0c}.ke{fill:#4a463f}.w{fill:#ffffff}
      .t{fill:#0f6b5f}.t2{fill:#0a4f47}.t3{fill:#2a9183}
      .g{fill:#1f7a52}.g2{fill:#155c3d}.g3{fill:#389e6e}
      .r{fill:#b5392f}.r2{fill:#8c2a22}.r3{fill:#d15a4a}
      .y{fill:#a25e10}.y2{fill:#7d480b}.y3{fill:#c47e28}
      .v{fill:#3a6ea5}.m{fill:#6b6760}.b{fill:#3a6ea5}
    </style>
  </defs>

  <!-- graderDeliberating -->
  <g transform="translate(0 0)">
    <rect class="m" x="7" y="2" width="2" height="2"/><rect class="m" x="14" y="1" width="2" height="2"/><rect class="m" x="21" y="2" width="2" height="2"/>
    <rect class="k" x="15" y="6" width="2" height="16"/><rect class="k" x="11" y="22" width="10" height="2"/><rect class="k" x="9" y="24" width="14" height="2"/>
    <rect class="k" x="5" y="8" width="22" height="2"/>
    <rect class="k" x="4" y="11" width="2" height="6"/><rect class="k" x="2" y="16" width="6" height="2"/><rect class="t" x="3" y="12" width="4" height="4"/><rect class="t3" x="3" y="12" width="2" height="2"/>
    <rect class="k" x="25" y="13" width="2" height="6"/><rect class="k" x="23" y="18" width="6" height="2"/><rect class="y" x="24" y="14" width="4" height="4"/><rect class="y3" x="24" y="14" width="2" height="2"/>
  </g>

  <!-- graderApprove -->
  <g transform="translate(32 0)">
    <rect class="k" x="9" y="6" width="14" height="2"/><rect class="k" x="9" y="24" width="14" height="2"/><rect class="k" x="6" y="9" width="2" height="14"/><rect class="k" x="24" y="9" width="2" height="14"/><rect class="k" x="7" y="7" width="2" height="2"/><rect class="k" x="23" y="7" width="2" height="2"/><rect class="k" x="7" y="23" width="2" height="2"/><rect class="k" x="23" y="23" width="2" height="2"/>
    <rect class="g" x="8" y="8" width="16" height="16"/><rect class="g3" x="8" y="8" width="16" height="2"/><rect class="g3" x="8" y="8" width="2" height="10"/><rect class="g2" x="22" y="10" width="2" height="14"/><rect class="g2" x="8" y="22" width="16" height="2"/>
    <rect class="w" x="11" y="15" width="3" height="4"/><rect class="w" x="13" y="17" width="3" height="3"/><rect class="w" x="16" y="14" width="2" height="3"/><rect class="w" x="18" y="11" width="3" height="4"/>
  </g>

  <!-- graderReject -->
  <g transform="translate(64 0)">
    <rect class="k" x="9" y="6" width="14" height="2"/><rect class="k" x="9" y="24" width="14" height="2"/><rect class="k" x="6" y="9" width="2" height="14"/><rect class="k" x="24" y="9" width="2" height="14"/><rect class="k" x="7" y="7" width="2" height="2"/><rect class="k" x="23" y="7" width="2" height="2"/><rect class="k" x="7" y="23" width="2" height="2"/><rect class="k" x="23" y="23" width="2" height="2"/>
    <rect class="r" x="8" y="8" width="16" height="16"/><rect class="r3" x="8" y="8" width="16" height="2"/><rect class="r3" x="8" y="8" width="2" height="10"/><rect class="r2" x="22" y="10" width="2" height="14"/><rect class="r2" x="8" y="22" width="16" height="2"/>
    <rect class="w" x="11" y="11" width="3" height="3"/><rect class="w" x="18" y="11" width="3" height="3"/><rect class="w" x="14" y="14" width="4" height="4"/><rect class="w" x="11" y="18" width="3" height="3"/><rect class="w" x="18" y="18" width="3" height="3"/>
  </g>

  <!-- gavel -->
  <g transform="translate(96 0)">
    <rect class="k" x="6" y="24" width="20" height="3"/><rect class="k" x="7" y="22" width="18" height="2"/><rect class="y" x="9" y="22" width="14" height="2"/><rect class="y3" x="9" y="22" width="14" height="1"/>
    <rect class="k" x="8" y="6" width="16" height="8"/><rect class="y" x="10" y="7" width="12" height="6"/><rect class="y3" x="10" y="7" width="12" height="2"/><rect class="y2" x="10" y="11" width="12" height="2"/>
    <rect class="k" x="13" y="14" width="2" height="2"/><rect class="k" x="15" y="16" width="2" height="2"/><rect class="k" x="17" y="18" width="2" height="3"/>
    <rect class="w" x="11" y="8" width="2" height="2"/>
  </g>

  <!-- scoreMeterLow -->
  <g transform="translate(128 0)">
    <rect class="r" x="4" y="14" width="2" height="6"/><rect class="r" x="5" y="11" width="2" height="3"/><rect class="r" x="7" y="9" width="3" height="2"/><rect class="r3" x="4" y="14" width="2" height="2"/>
    <rect class="m" x="10" y="7" width="3" height="2"/><rect class="m" x="13" y="6" width="6" height="2"/><rect class="m" x="19" y="7" width="3" height="2"/><rect class="m" x="22" y="9" width="3" height="2"/><rect class="m" x="25" y="11" width="2" height="3"/><rect class="m" x="26" y="14" width="2" height="6"/>
    <rect class="k" x="15" y="20" width="2" height="2"/><rect class="k" x="13" y="21" width="6" height="2"/>
    <rect class="k" x="14" y="18" width="2" height="2"/><rect class="k" x="11" y="14" width="2" height="2"/><rect class="k" x="9" y="12" width="2" height="2"/>
  </g>

  <!-- scoreMeterMid -->
  <g transform="translate(160 0)">
    <rect class="y" x="4" y="14" width="2" height="6"/><rect class="y" x="5" y="11" width="2" height="3"/><rect class="y" x="7" y="9" width="3" height="2"/><rect class="y" x="10" y="7" width="3" height="2"/><rect class="y" x="13" y="6" width="6" height="2"/><rect class="y3" x="4" y="14" width="2" height="2"/>
    <rect class="m" x="19" y="7" width="3" height="2"/><rect class="m" x="22" y="9" width="3" height="2"/><rect class="m" x="25" y="11" width="2" height="3"/><rect class="m" x="26" y="14" width="2" height="6"/>
    <rect class="k" x="15" y="20" width="2" height="2"/><rect class="k" x="13" y="21" width="6" height="2"/>
    <rect class="k" x="15" y="18" width="2" height="2"/><rect class="k" x="15" y="14" width="2" height="2"/><rect class="k" x="15" y="11" width="2" height="2"/>
  </g>

  <!-- scoreMeterHigh -->
  <g transform="translate(192 0)">
    <rect class="g" x="4" y="14" width="2" height="6"/><rect class="g" x="5" y="11" width="2" height="3"/><rect class="g" x="7" y="9" width="3" height="2"/><rect class="g" x="10" y="7" width="3" height="2"/><rect class="g" x="13" y="6" width="6" height="2"/><rect class="g" x="19" y="7" width="3" height="2"/><rect class="g" x="22" y="9" width="3" height="2"/><rect class="g" x="25" y="11" width="2" height="3"/><rect class="g" x="26" y="14" width="2" height="6"/><rect class="g3" x="4" y="14" width="2" height="2"/><rect class="g3" x="13" y="6" width="6" height="1"/>
    <rect class="w" x="24" y="8" width="2" height="2"/>
    <rect class="k" x="15" y="20" width="2" height="2"/><rect class="k" x="13" y="21" width="6" height="2"/>
    <rect class="k" x="18" y="18" width="2" height="2"/><rect class="k" x="21" y="14" width="2" height="2"/><rect class="k" x="23" y="12" width="2" height="2"/>
  </g>

  <!-- graderDisagreement -->
  <g transform="translate(224 0)">
    <rect class="k" x="3" y="6" width="8" height="3"/><rect class="k" x="2" y="9" width="2" height="6"/><rect class="k" x="3" y="15" width="8" height="9"/><rect class="m" x="4" y="16" width="6" height="6"/>
    <rect class="k" x="21" y="6" width="8" height="3"/><rect class="k" x="28" y="9" width="2" height="6"/><rect class="k" x="21" y="15" width="8" height="9"/><rect class="m" x="22" y="16" width="6" height="6"/>
    <rect class="r" x="14" y="4" width="3" height="5"/><rect class="r" x="15" y="9" width="3" height="5"/><rect class="r" x="13" y="14" width="3" height="5"/><rect class="r" x="14" y="19" width="3" height="5"/><rect class="r3" x="14" y="4" width="3" height="2"/>
    <rect class="y" x="19" y="2" width="2" height="3"/><rect class="y" x="19" y="6" width="2" height="2"/>
  </g>

  <!-- verdictSealed -->
  <g transform="translate(256 0)">
    <rect class="m" x="10" y="22" width="3" height="7"/><rect class="m" x="19" y="22" width="3" height="7"/>
    <rect class="k" x="11" y="4" width="10" height="2"/><rect class="k" x="11" y="22" width="10" height="2"/><rect class="k" x="8" y="7" width="2" height="14"/><rect class="k" x="22" y="7" width="2" height="14"/><rect class="k" x="9" y="5" width="2" height="2"/><rect class="k" x="21" y="5" width="2" height="2"/><rect class="k" x="9" y="21" width="2" height="2"/><rect class="k" x="21" y="21" width="2" height="2"/>
    <rect class="v" x="10" y="6" width="12" height="16"/>
    <rect class="w" x="12" y="13" width="3" height="3"/><rect class="w" x="14" y="15" width="3" height="3"/><rect class="w" x="17" y="11" width="3" height="4"/>
  </g>
</svg>
